HIERARCHY
ROOT Hips
{
	OFFSET 0.000000 0.000000 0.000000 
	CHANNELS 6 Xposition Yposition Zposition Yrotation Zrotation Xrotation 
	JOINT Lumbar
	{
		OFFSET 0.000000 0.000000 0.000000 
		CHANNELS 3 Zrotation Xrotation Yrotation
		JOINT Neck
		{
			OFFSET 0.000000 0.445665 0.000000 
			CHANNELS 3 Zrotation Xrotation Yrotation
			End Site
			{
				OFFSET 0.000000 0.227535 0.000000 
			}
		}
		JOINT RightShoulder
		{
			OFFSET 0.019635 0.377685 0.194865 
			CHANNELS 3 Zrotation Xrotation Yrotation
			JOINT RightElbow
			{
				OFFSET 0.000000 -0.243375 0.000000 
				CHANNELS 2 Zrotation Yrotation
				JOINT RightWrist
				{
					OFFSET 0.000000 -0.264825 0.000000 
					CHANNELS 2 Zrotation Xrotation
					End Site
					{
						OFFSET 0.006600 -0.176220 0.000990 
					}
				}
			}
		}
		JOINT LeftShoulder
		{
			OFFSET 0.019635 0.377685 -0.194865 
			CHANNELS 3 Zrotation Xrotation Yrotation
			JOINT LeftElbow
			{
				OFFSET 0.000000 -0.243375 0.000000 
				CHANNELS 2 Zrotation Yrotation
				JOINT LeftWrist
				{
					OFFSET 0.000000 -0.264825 0.000000 
					CHANNELS 2 Zrotation Xrotation
					End Site
					{
						OFFSET 0.006600 -0.176220 -0.000990 
					}
				}
			}
		}
	}
	JOINT RightHip
	{
		OFFSET 0.052140 -0.069960 0.075570 
		CHANNELS 3 Zrotation Xrotation Yrotation
		JOINT RightKnee
		{
			OFFSET 0.000000 -0.402270 0.000000 
			CHANNELS 1 Zrotation
			JOINT RightAnkle
			{
				OFFSET 0.000000 -0.404085 0.000000 
				CHANNELS 3 Zrotation Xrotation Yrotation
				End Site
				{
					OFFSET 0.204105 -0.089430 0.008415 
				}
			}
		}
	}
	JOINT LeftHip
	{
		OFFSET 0.052140 -0.069960 -0.075570 
		CHANNELS 3 Zrotation Xrotation Yrotation
		JOINT LeftKnee
		{
			OFFSET 0.000000 -0.402270 0.000000 
			CHANNELS 1 Zrotation
			JOINT LeftAnkle
			{
				OFFSET 0.000000 -0.404085 0.000000 
				CHANNELS 3 Zrotation Xrotation Yrotation
				End Site
				{
					OFFSET 0.204105 -0.089430 -0.008415 
				}
			}
		}
	}
}
MOTION
Frames: 22
Frame Time: 0.02
0.01403 0.00322 -0.0022 23.5925 -22.31477 -7.96525 48.38059 0.89129 -3.82377 -9.62985 -2.69628 -0.37235 -20.65192 -9.28598 2.65661 40.13796 89.25036 5.97564 -0.44201 -28.54965 12.38808 0.47744 43.13076 -94.57362 12.29656 0.53289 34.25027 -0.06722 -2.39322 -20.75757 -8.86538 -5.10875 -3.49945 37.48559 8.80027 -4.51699 -26.74336 -9.76009 5.40824 3.70973
0.01112 0.00286 -0.00035 23.81736 -22.44705 -7.92855 47.97875 0.92649 -3.88154 -9.50009 -2.59629 -0.3889 -20.1504 -9.4366 2.85412 39.79176 89.29618 6.06328 -0.45608 -27.54807 12.35827 0.37626 42.15058 -94.70214 12.34405 0.51111 34.5735 -0.20575 -2.99693 -20.75464 -8.85501 -5.08092 -3.47996 37.89835 8.96704 -3.58464 -26.75914 -9.71165 5.30376 3.64601
0.0082 0.0025 0.00151 24.04162 -22.57939 -7.89195 47.57706 0.9617 -3.93911 -9.37026 -2.49641 -0.40542 -19.64895 -9.5868 3.05141 39.44591 89.34187 6.15075 -0.47015 -26.54784 12.32877 0.27409 41.17325 -94.83011 12.39123 0.4894 34.89693 -0.34363 -3.59707 -20.75185 -8.84494 -5.05331 -3.46063 38.31106 9.13314 -2.65544 -26.77501 -9.66342 5.19959 3.58248
0.00529 0.00214 0.00336 24.26581 -22.71132 -7.85536 47.17631 0.99681 -3.9967 -9.24083 -2.3967 -0.42192 -19.14876 -9.73696 3.24837 39.10064 89.38741 6.23811 -0.48422 -25.54908 12.29907 0.17305 40.19601 -94.95823 12.43855 0.46769 35.21931 -0.48166 -4.19848 -20.74893 -8.83467 -5.0256 -3.44123 38.72272 9.29936 -1.72604 -26.79076 -9.61514 5.09543 3.51896
0.00238 0.00179 0.00522 24.49057 -22.84308 -7.81868 46.77572 1.03186 -4.05448 -9.11161 -2.29693 -0.43845 -18.649 -9.88751 3.4454 38.75536 89.43346 6.32567 -0.49819 -24.54958 12.26901 0.07339 39.21613 -95.0869 12.48623 0.44591 35.54115 -0.62051 -4.80455 -20.74587 -8.82394 -4.99756 -3.4216 39.13406 9.46634 -0.79332 -26.80638 -9.56661 4.99096 3.45523
-0.00055 0.00142 0.00708 24.71373 -22.97665 -7.78227 46.37171 1.0674 -4.1116 -8.9805 -2.19681 -0.45493 -18.14402 -10.03699 3.64324 38.40838 89.47857 6.41297 -0.51243 -23.54787 12.24073 -0.03412 38.24433 -95.21338 12.53234 0.42435 35.86795 -0.75639 -5.39249 -20.74365 -8.81524 -4.97084 -3.4029 39.54965 9.63062 0.12849 -26.82278 -9.51903 4.88741 3.39213
-0.00343 0.00107 0.00892 24.93992 -23.10631 -7.74533 45.97525 1.10192 -4.17003 -8.85339 -2.09755 -0.47149 -17.65021 -10.18844 3.83922 38.065 89.52453 6.50051 -0.52635 -22.55186 12.20879 -0.12543 37.25698 -95.34425 12.58159 0.40235 36.18411 -0.89786 -6.01499 -20.73963 -8.8026 -4.94161 -3.38243 39.956 9.80006 1.07097 -26.83758 -9.4696 4.78214 3.32785
-0.00636 0.0007 0.01078 25.16321 -23.23977 -7.7089 45.57144 1.13739 -4.22715 -8.7225 -1.99743 -0.48797 -17.14589 -10.33808 4.03692 37.71868 89.57154 6.5882 -0.54013 -21.55033 12.18042 -0.23221 36.28465 -95.47082 12.62791 0.3808 36.51062 -1.03462 -6.60791 -20.73749 -8.79336 -4.9145 -3.36346 40.37132 9.96487 1.99486 -26.85389 -9.42184 4.67842 3.26463
-0.00936 0.00033 0.01266 25.38349 -23.37722 -7.67301 45.15982 1.17401 -4.28309 -8.58722 -1.89642 -0.50438 -16.62909 -10.48557 4.23684 37.36699 89.61256 6.67466 -0.55547 -20.54235 12.15564 -0.35605 35.32751 -95.59317 12.67077 0.35962 36.84803 -1.16386 -7.15554 -20.7368 -8.78927 -4.89076 -3.34683 40.79622 10.12357 2.89453 -26.87192 -9.37629 4.5767 3.20278
-0.01196 4e-05 0.01441 25.62268 -23.48976 -7.63374 44.79661 1.20398 -4.34711 -8.47786 -1.80104 -0.52128 -16.18517 -10.64564 4.42439 37.04084 89.6662 6.76395 -0.56704 -19.57229 12.10792 -0.3762 34.27342 -95.7429 12.73388 0.33579 37.11749 -1.33108 -7.93629 -20.72519 -8.75854 -4.84996 -3.31825 41.16188 10.31605 3.92906 -26.87969 -9.31853 4.46378 3.13329
-0.01542 -0.00045 0.01645 25.82094 -23.65608 -7.60179 44.32922 1.24799 -4.39325 -8.31348 -1.69348 -0.53711 -15.587 -10.77902 4.63772 36.6643 89.70717 6.84996 -0.58324 -18.52198 12.11004 -0.61853 33.43007 -95.83291 12.75409 0.31788 37.53349 -1.42154 -8.24288 -20.73827 -8.78205 -4.84367 -3.31393 41.65497 10.43817 4.68188 -26.90931 -9.28621 4.3743 3.07977
-0.02109 -0.00142 0.01917 25.91408 -23.9619 -7.58877 43.58887 1.33067 -4.39658 -7.99916 -1.55463 -0.55013 -14.56509 -10.84026 4.92576 36.12091 89.59201 6.90375 -0.64067 -17.2499 12.23895 -1.44891 33.11981 -95.77322 12.65649 0.3136 38.33115 -1.27119 -7.08678 -20.80723 -8.9726 -4.94536 -3.38499 42.48283 10.35763 4.62943 -26.99852 -9.32706 4.35157 3.07182
-0.02765 -0.00261 0.02219 25.96469 -24.32347 -7.58336 42.74122 1.42732 -4.38074 -7.62934 -1.4032 -0.56203 -13.38869 -10.87484 5.23938 35.53352 89.48207 6.95785 -0.69834 -15.8972 12.42 -2.50622 33.02976 -95.65087 12.51569 0.31577 39.28055 -1.04898 -5.48228 -20.90376 -9.21451 -5.07942 -3.47891 43.44221 10.20802 4.29901 -27.11021 -9.39294 4.35205 3.07966
-0.03387 -0.00374 0.02513 26.03019 -24.66447 -7.57522 41.93457 1.51764 -4.36964 -7.28432 -1.2561 -0.57434 -12.2828 -10.9205 5.53811 34.98321 89.45483 7.02788 -0.73612 -14.5827 12.58347 -3.47414 32.86815 -95.54798 12.39486 0.31667 40.17288 -0.87987 -4.1913 -20.99477 -9.42073 -5.18974 -3.55649 44.35016 10.09649 4.11819 -27.21123 -9.44498 4.34021 3.07907
-0.0398 -0.00468 0.02785 26.11474 -24.98444 -7.5639 41.16161 1.60836 -4.37546 -6.9412 -1.11466 -0.58706 -11.17391 -10.96914 5.84884 34.3552 89.08722 7.033 -0.85375 -13.26256 12.72036 -4.38542 32.58567 -95.48324 12.27304 0.31047 41.01206 -0.62589 -2.44526 -21.05401 -9.67819 -5.33748 -3.65878 45.21997 9.95735 3.84296 -27.31226 -9.50696 4.33546 3.08356
-0.04656 -0.00608 0.0311 26.14904 -25.36274 -7.56118 40.29161 1.70097 -4.34126 -6.58068 -0.95869 -0.59867 -10.03645 -11.00694 6.14297 33.88549 89.40624 7.16973 -0.80969 -11.93365 12.92607 -5.46731 32.60832 -95.32391 12.14239 0.32069 42.00202 -0.52969 -1.52929 -21.18876 -9.84237 -5.4159 -3.7156 46.2044 9.8584 3.69297 -27.42105 -9.55485 4.32196 3.08153
-0.05531 -0.00858 0.03566 26.05902 -25.87755 -7.57922 39.1924 1.80081 -4.20377 -6.18764 -0.76463 -0.60737 -8.841 -11.00714 6.36692 33.80309 91.82332 7.69815 -0.28123 -10.61224 13.30051 -6.9749 33.40915 -94.92032 12.00134 0.37361 43.33705 -0.90356 -3.11516 -21.50223 -9.7252 -5.28679 -3.63621 47.44006 9.89641 4.00609 -27.52592 -9.55195 4.27384 3.05462
-0.06489 -0.01154 0.04077 25.91907 -26.45145 -7.6062 37.99689 1.90126 -4.02656 -5.77811 -0.55725 -0.615 -7.62401 -11.00014 6.57796 33.8915 94.89404 8.35168 0.40202 -9.28238 13.74472 -8.645 34.51137 -94.42281 11.85061 0.44293 44.82586 -1.43532 -5.53298 -21.89583 -9.51454 -5.08837 -3.51126 48.79375 9.97608 4.44649 -27.64238 -9.53516 4.21685 3.02107
-0.07416 -0.01434 0.04569 25.79943 -27.00509 -7.62937 36.83735 1.99757 -3.86547 -5.37557 -0.35583 -0.62318 -6.42971 -11.00556 6.80514 33.94317 97.53117 8.93189 0.99063 -7.94877 14.16164 -10.23321 35.48238 -93.96803 11.70423 0.50556 46.26542 -1.88414 -7.50494 -22.26682 -9.35391 -4.92698 -3.41046 50.11366 10.03014 4.79547 -27.76546 -9.52839 4.16718 2.99262
-0.0832 -0.01695 0.05036 25.6887 -27.53167 -7.65031 35.70714 2.1098 -3.71045 -4.97549 -0.15169 -0.63109 -5.18101 -10.97086 6.98456 33.82625 100.74172 9.58991 1.68531 -6.64512 14.55872 -11.86073 36.43669 -93.51333 11.56344 0.5656 47.61929 -2.37876 -9.74886 -22.57718 -9.16288 -4.74316 -3.29575 51.34982 10.10795 5.2734 -27.83562 -9.50648 4.10495 2.95624
-0.0929 -0.02008 0.05566 25.54766 -28.12936 -7.67972 34.49414 2.18994 -3.53538 -4.56424 0.04642 -0.6393 -4.03567 -11.01907 7.26667 34.09465 102.9171 10.1052 2.19142 -5.27722 15.01682 -13.4452 37.49461 -93.03386 11.40064 0.63433 49.19102 -2.81506 -11.62787 -23.03661 -9.01272 -4.58943 -3.1991 52.79238 10.14963 5.52047 -28.02288 -9.51295 4.06581 2.93421
-0.10426 -0.0244 0.06255 25.33955 -28.89513 -7.71426 33.079 2.17142 -3.29939 -4.15308 0.25261 -0.6489 -3.24111 -11.2919 7.77704 35.44519 102.03963 10.28821 2.17792 -3.74159 15.5918 -14.84027 38.75897 -92.53722 11.25677 0.72825 51.28407 -3.06495 -12.31543 -23.85478 -8.9939 -4.53349 -3.16145 54.72651 10.05994 5.06732 -28.49472 -9.59661 4.09825 2.95648
